<svg width="16" height="16" viewBox="0 0 16 16" fill="none" xmlns="http://www.w3.org/2000/svg">
<path d="M5.21333 10.6667H10V10C10 8.52669 11.1933 7.33335 12.6667 7.33335H13.16L11.8933 1.70669C11.8258 1.41208 11.6606 1.14898 11.4245 0.960166C11.1885 0.77135 10.8956 0.667919 10.5933 0.666687H8.66666C8.3 0.666687 8 0.966687 8 1.33335C8 1.70002 8.3 2.00002 8.66666 2.00002H10.5933L11.5267 6.16669H11.52C10.8057 6.38199 10.1657 6.79252 9.67214 7.35202C9.1786 7.91152 8.85114 8.59774 8.72666 9.33335H5.21333C5.05313 8.87908 4.73415 8.49801 4.31518 8.26034C3.8962 8.02268 3.40544 7.94443 2.93333 8.04002C2.14666 8.19335 1.51333 8.84002 1.36666 9.62669C1.31195 9.91591 1.32171 10.2137 1.39525 10.4987C1.46879 10.7837 1.60429 11.049 1.79211 11.2756C1.97993 11.5023 2.21543 11.6847 2.48183 11.8099C2.74823 11.9351 3.03897 12.0001 3.33333 12C4.2 12 4.93333 11.44 5.21333 10.6667ZM3.33333 10.6667C2.96666 10.6667 2.66666 10.3667 2.66666 10C2.66666 9.63335 2.96666 9.33335 3.33333 9.33335C3.7 9.33335 4 9.63335 4 10C4 10.3667 3.7 10.6667 3.33333 10.6667Z" fill="#9E9E9E"/>
<path d="M12.6666 8C11.56 8 10.6666 8.89333 10.6666 10C10.6666 11.1067 11.56 12 12.6666 12C13.7733 12 14.6666 11.1067 14.6666 10C14.6666 8.89333 13.7733 8 12.6666 8ZM12.6666 10.6667C12.3 10.6667 12 10.3667 12 10C12 9.63333 12.3 9.33333 12.6666 9.33333C13.0333 9.33333 13.3333 9.63333 13.3333 10C13.3333 10.3667 13.0333 10.6667 12.6666 10.6667ZM7.33329 13.3333H4.66663L8.66663 15.3333V14H11.3333L7.33329 12V13.3333Z" fill="#9E9E9E"/>
</svg>
