<svg width="18" height="18" viewBox="0 0 18 18" fill="none" xmlns="http://www.w3.org/2000/svg">
<path d="M17.4545 9.83248C17.4542 11.2132 17.0507 12.5695 16.2845 13.7651C15.5183 14.9607 14.4164 15.9534 13.0896 16.6436C11.7629 17.3337 10.2579 17.6969 8.72605 17.6967C7.19417 17.6966 5.68934 17.3329 4.36279 16.6425C3.03623 15.952 1.93469 14.9589 1.16887 13.7632C0.403041 12.5674 -8.59716e-05 11.211 1.37523e-08 9.83028C8.59991e-05 8.44957 0.403379 7.09321 1.16935 5.89751C1.93533 4.70181 3.037 3.70889 4.36364 3.01854C4.61295 2.90099 4.90302 2.8748 5.17325 2.94546C5.44348 3.01612 5.67296 3.17816 5.81377 3.39772C5.95458 3.61728 5.99583 3.87739 5.92888 4.12371C5.86194 4.37003 5.692 4.58351 5.45455 4.71956C4.45729 5.23851 3.62958 5.9854 3.05496 6.88483C2.48034 7.78427 2.17916 8.80443 2.18182 9.84232C2.17863 10.8791 2.48376 11.8977 3.06545 12.7921C3.56811 13.5892 4.26997 14.2697 5.11533 14.7797C5.96069 15.2896 6.9263 15.615 7.9355 15.7299C8.94471 15.8448 9.96975 15.7461 10.9293 15.4417C11.8888 15.1373 12.7564 14.6355 13.4632 13.9761C14.17 13.3168 14.6966 12.518 15.0012 11.6432C15.3057 10.7684 15.3799 9.84169 15.2177 8.93657C15.0556 8.03144 14.6616 7.17283 14.0671 6.42888C13.4726 5.68493 12.6939 5.07611 11.7927 4.65074C11.5696 4.48709 11.4272 4.25063 11.3966 3.99282C11.3659 3.73501 11.4495 3.47672 11.6291 3.27418C11.77 3.11527 11.9622 2.99968 12.179 2.94332C12.3959 2.88697 12.6268 2.89264 12.84 2.95954C14.2234 3.62569 15.3821 4.61556 16.1941 5.82502C17.0062 7.03449 17.4416 8.41885 17.4545 9.83248V9.83248Z" fill="#9DFFA7"/>
<path d="M9.81817 0.983254V7.86603C9.81817 8.1268 9.70324 8.3769 9.49865 8.56129C9.29407 8.74569 9.01659 8.84928 8.72726 8.84928C8.43793 8.84928 8.16046 8.74569 7.95587 8.56129C7.75129 8.3769 7.63635 8.1268 7.63635 7.86603V0.983254C7.63635 0.722479 7.75129 0.472384 7.95587 0.287989C8.16046 0.103593 8.43793 0 8.72726 0C9.01659 0 9.29407 0.103593 9.49865 0.287989C9.70324 0.472384 9.81817 0.722479 9.81817 0.983254V0.983254Z" fill="#9DFFA7"/>
</svg>
