<svg width="16" height="15" viewBox="0 0 16 15" fill="none" xmlns="http://www.w3.org/2000/svg">
<path d="M2.92816 9.89984V9.51475C2.92711 9.44787 2.94087 9.38148 2.96862 9.31945C2.99637 9.25742 3.03757 9.20099 3.0898 9.15348C3.14202 9.10596 3.20424 9.06831 3.2728 9.04272C3.34136 9.01713 3.41489 9.00411 3.48909 9.00443H5.27937C5.427 9.00692 5.56751 9.06201 5.67018 9.15764C5.77285 9.25328 5.82931 9.38168 5.8272 9.51475V11.1827C5.82859 11.2487 5.8155 11.3142 5.78869 11.3756C5.76188 11.437 5.72187 11.4931 5.67096 11.5405C5.62006 11.5879 5.55926 11.6258 5.49205 11.652C5.42485 11.6781 5.35257 11.6921 5.27937 11.693H3.48909C3.34147 11.6905 3.20095 11.6354 3.09828 11.5398C2.99562 11.4441 2.93916 11.3158 2.94126 11.1827V10.7976L2.92816 9.89984ZM3.89014 10.6795C3.89011 10.71 3.9032 10.7394 3.92665 10.7614C3.95011 10.7834 3.98211 10.7964 4.01595 10.7976H4.7263C4.74317 10.7973 4.7598 10.794 4.77526 10.7879C4.79071 10.7818 4.80468 10.773 4.81636 10.762C4.82804 10.7511 4.83721 10.7381 4.84335 10.724C4.84948 10.7098 4.85246 10.6947 4.85212 10.6795V10.6795V10.018C4.85246 10.0028 4.84948 9.98765 4.84335 9.97348C4.83721 9.95932 4.82804 9.94638 4.81636 9.93541C4.80468 9.92444 4.79071 9.91565 4.77526 9.90955C4.7598 9.90344 4.74317 9.90015 4.7263 9.89984H4.01333C3.97949 9.90106 3.94749 9.91404 3.92403 9.93606C3.90057 9.95809 3.88749 9.98744 3.88752 10.018V10.018L3.89014 10.6795Z" fill="#FFF421"/>
<path d="M6.97528 9.90059H7.53622C7.59046 9.90242 7.6418 9.92314 7.67944 9.95838C7.71708 9.99363 7.73809 10.0407 7.73805 10.0896V10.6117C7.73735 10.6358 7.74197 10.6598 7.75164 10.6822C7.76131 10.7047 7.77583 10.7252 7.79437 10.7426C7.8129 10.7599 7.83508 10.7738 7.85961 10.7834C7.88414 10.793 7.91053 10.798 7.93726 10.7983H8.4982C8.5522 10.7996 8.60354 10.8198 8.64125 10.8547C8.67896 10.8895 8.70005 10.9363 8.70003 10.985V10.985V11.5071C8.70007 11.556 8.67906 11.6031 8.64142 11.6383C8.60378 11.6736 8.55244 11.6943 8.4982 11.6961H6.97528C6.94843 11.6955 6.92198 11.6901 6.89743 11.6803C6.87288 11.6705 6.85073 11.6564 6.83223 11.6388C6.81373 11.6213 6.79924 11.6006 6.78961 11.578C6.77997 11.5554 6.77537 11.5313 6.77607 11.5071V10.0896C6.77537 10.0654 6.77997 10.0413 6.78961 10.0187C6.79924 9.9961 6.81373 9.97543 6.83223 9.95788C6.85073 9.94033 6.87288 9.92624 6.89743 9.91641C6.92198 9.90658 6.94843 9.9012 6.97528 9.90059V9.90059Z" fill="#FFF421"/>
<path d="M3.61754 3.62573H3.19815C3.12654 3.62267 3.05907 3.59453 3.01012 3.54732C2.96117 3.50011 2.93458 3.43755 2.93603 3.37294V2.98075C2.93524 2.91631 2.96204 2.85408 3.01086 2.80699C3.05968 2.75991 3.12676 2.73162 3.19815 2.72797H3.61754C3.68893 2.73162 3.75601 2.75991 3.80483 2.80699C3.85365 2.85408 3.88045 2.91631 3.87966 2.98075V3.37294C3.88045 3.43738 3.85365 3.49962 3.80483 3.5467C3.75601 3.59378 3.68893 3.62209 3.61754 3.62573V3.62573Z" fill="#FFF421"/>
<path d="M6.99891 8.10741H8.4694C8.5299 8.10925 8.58724 8.13221 8.6293 8.17145C8.67136 8.21068 8.69485 8.26312 8.69482 8.31768V9.69267C8.69517 9.71966 8.68961 9.74645 8.67847 9.7715C8.66733 9.79656 8.65082 9.81939 8.62989 9.8387C8.60896 9.858 8.58401 9.8734 8.55647 9.88402C8.52894 9.89464 8.49935 9.90027 8.4694 9.90057H7.94516C7.91533 9.90027 7.88587 9.89462 7.85847 9.88398C7.83108 9.87333 7.80631 9.85789 7.78558 9.83855C7.76486 9.81922 7.7486 9.79637 7.73775 9.77133C7.72689 9.74629 7.72166 9.71955 7.72236 9.69267V9.22016C7.72306 9.16543 7.69979 9.11265 7.65759 9.07328C7.61538 9.03392 7.55766 9.01114 7.49694 9.0099H6.97269C6.94264 9.0096 6.91295 9.00389 6.88539 8.9931C6.85782 8.98231 6.83292 8.96665 6.81216 8.94705C6.7914 8.92746 6.7752 8.90433 6.7645 8.87901C6.75381 8.85369 6.74884 8.8267 6.74989 8.79963V8.32712C6.7492 8.30013 6.75441 8.27328 6.76523 8.2481C6.77605 8.22292 6.79227 8.19991 6.81296 8.18039C6.83365 8.16086 6.85841 8.1452 6.88582 8.1343C6.91322 8.1234 6.94274 8.11748 6.97269 8.11687L6.99891 8.10741Z" fill="#FFF421"/>
<path d="M3.89014 7.85463C3.89266 7.88702 3.88775 7.91953 3.87571 7.95013C3.86367 7.98073 3.84477 8.00876 3.82017 8.03248C3.79557 8.0562 3.76581 8.0751 3.73275 8.088C3.69969 8.10089 3.66404 8.1075 3.62802 8.10742H3.20862C3.1726 8.1075 3.13695 8.10089 3.10389 8.088C3.07083 8.0751 3.04107 8.0562 3.01648 8.03248C2.99188 8.00876 2.97297 7.98073 2.96094 7.95013C2.9489 7.91953 2.94398 7.88702 2.9465 7.85463V7.46482C2.94572 7.40038 2.97252 7.33814 3.02134 7.29106C3.07016 7.24398 3.13724 7.21567 3.20862 7.21203H3.62802C3.69963 7.21509 3.7671 7.24322 3.81605 7.29043C3.865 7.33764 3.89158 7.40021 3.89014 7.46482V7.85463Z" fill="#FFF421"/>
<path d="M5.12209 8.1075C5.0863 8.10756 5.05088 8.10101 5.01801 8.08826C4.98514 8.07551 4.95551 8.05683 4.93095 8.03337C4.9064 8.0099 4.88743 7.98216 4.87522 7.95184C4.86301 7.92152 4.85782 7.88927 4.85997 7.85707V7.46726C4.85852 7.40265 4.8851 7.34008 4.93406 7.29287C4.98301 7.24566 5.05047 7.21753 5.12209 7.21447H5.54148C5.61287 7.21083 5.67995 7.18252 5.72877 7.13544C5.77759 7.08835 5.80439 7.02612 5.8036 6.96168V6.96168V6.56949C5.80216 6.50488 5.82874 6.44232 5.87769 6.39511C5.92665 6.3479 5.99411 6.31976 6.06572 6.3167H6.48511C6.5565 6.32034 6.62358 6.34865 6.6724 6.39573C6.72122 6.44281 6.74802 6.50505 6.74723 6.56949V7.85707C6.74868 7.92168 6.7221 7.98425 6.67314 8.03146C6.62419 8.07867 6.55673 8.1068 6.48511 8.10986L5.12209 8.1075Z" fill="#FFF421"/>
<path d="M9.932 7.20971H10.3514C10.423 7.20664 10.4905 7.17852 10.5394 7.13131C10.5884 7.0841 10.615 7.02152 10.6135 6.95692V6.95692V6.56474C10.6127 6.5003 10.6395 6.43807 10.6883 6.39098C10.7372 6.3439 10.8042 6.31559 10.8756 6.31195H12.257C12.3286 6.31501 12.3961 6.34314 12.445 6.39035C12.494 6.43756 12.5206 6.50013 12.5191 6.56474V6.95692C12.5206 7.02152 12.494 7.0841 12.445 7.13131C12.3961 7.17852 12.3286 7.20664 12.257 7.20971H11.8376C11.7662 7.21335 11.6991 7.24166 11.6503 7.28874C11.6015 7.33583 11.5747 7.39806 11.5755 7.4625V7.85231C11.578 7.8847 11.5731 7.91721 11.5611 7.94781C11.549 7.97841 11.5301 8.00644 11.5055 8.03016C11.4809 8.05388 11.4512 8.07279 11.4181 8.08568C11.3851 8.09857 11.3494 8.10518 11.3134 8.1051H9.932C9.86061 8.10146 9.79354 8.07315 9.74472 8.02607C9.6959 7.97898 9.66909 7.91675 9.66988 7.85231V7.85231V7.4625C9.66973 7.39823 9.69675 7.33631 9.74544 7.28935C9.79413 7.24239 9.86084 7.21391 9.932 7.20971V7.20971Z" fill="#FFF421"/>
<path d="M4.16012 6.31428H4.57951C4.65113 6.31734 4.71859 6.34547 4.76755 6.39268C4.8165 6.43989 4.84308 6.50246 4.84163 6.56707V6.56707V6.95924C4.84308 7.02385 4.8165 7.08641 4.76755 7.13362C4.71859 7.18083 4.65113 7.20897 4.57951 7.21204H4.1575C4.08589 7.20897 4.01842 7.18083 3.96947 7.13362C3.92052 7.08641 3.89393 7.02385 3.89538 6.95924V6.95924V6.56707C3.89396 6.50207 3.92089 6.43916 3.97041 6.39188C4.01992 6.34461 4.08804 6.31674 4.16012 6.31428V6.31428Z" fill="#FFF421"/>
<path d="M9.66204 6.95924C9.66283 7.02368 9.63602 7.08592 9.5872 7.133C9.53838 7.18008 9.4713 7.20839 9.39992 7.21204H8.02117C7.94978 7.20839 7.8827 7.18008 7.83388 7.133C7.78506 7.08592 7.75826 7.02368 7.75905 6.95924V6.56707C7.75826 6.50263 7.78506 6.4404 7.83388 6.39331C7.8827 6.34623 7.94978 6.31792 8.02117 6.31428H9.40254C9.47416 6.31734 9.54162 6.34547 9.59057 6.39268C9.63953 6.43989 9.66611 6.50246 9.66466 6.56707L9.66204 6.95924Z" fill="#FFF421"/>
<path d="M4.85214 5.16609C4.85359 5.2307 4.82701 5.29327 4.77805 5.34048C4.7291 5.3877 4.66164 5.41582 4.59002 5.41888H3.20865C3.13703 5.41582 3.06958 5.3877 3.02062 5.34048C2.97167 5.29327 2.94508 5.2307 2.94653 5.16609V5.16609V4.77392C2.94508 4.70931 2.97167 4.64675 3.02062 4.59954C3.06958 4.55233 3.13703 4.52419 3.20865 4.52113H4.59002C4.66118 4.52533 4.72789 4.55381 4.77659 4.60077C4.82528 4.64773 4.8523 4.70964 4.85214 4.77392V5.16609Z" fill="#FFF421"/>
<path d="M6.50347 5.41888H6.08408C6.01246 5.41582 5.945 5.3877 5.89604 5.34048C5.84709 5.29327 5.82051 5.2307 5.82196 5.16609V5.16609V4.77392C5.82051 4.70931 5.84709 4.64675 5.89604 4.59954C5.945 4.55233 6.01246 4.52419 6.08408 4.52113H6.50347C6.57485 4.52477 6.64194 4.55308 6.69076 4.60016C6.73958 4.64724 6.76638 4.70948 6.76559 4.77392V4.77392V5.16609C6.76704 5.2307 6.74045 5.29327 6.6915 5.34048C6.64255 5.3877 6.57508 5.41582 6.50347 5.41888V5.41888Z" fill="#FFF421"/>
<path d="M8.43529 5.41888H8.0159C7.94428 5.41582 7.87682 5.3877 7.82787 5.34048C7.77891 5.29327 7.75233 5.2307 7.75378 5.16609V4.77392C7.75233 4.70931 7.77891 4.64675 7.82787 4.59954C7.87682 4.55233 7.94428 4.52419 8.0159 4.52113H8.43529C8.50691 4.52419 8.57437 4.55233 8.62332 4.59954C8.67228 4.64675 8.69886 4.70931 8.69741 4.77392V5.16609C8.69886 5.2307 8.67228 5.29327 8.62332 5.34048C8.57437 5.3877 8.50691 5.41582 8.43529 5.41888Z" fill="#FFF421"/>
<path d="M5.8141 4.26833C5.81662 4.30071 5.81171 4.33323 5.79967 4.36383C5.78763 4.39443 5.76872 4.42246 5.74413 4.44618C5.71953 4.4699 5.68978 4.4888 5.65672 4.50169C5.62366 4.51459 5.588 4.5212 5.55198 4.52112H5.12996C5.09418 4.52118 5.05876 4.51463 5.02588 4.50188C4.99301 4.48913 4.96339 4.47045 4.93883 4.44699C4.91427 4.42352 4.8953 4.39578 4.88309 4.36546C4.87089 4.33514 4.8657 4.30289 4.86784 4.27069V3.88087C4.8664 3.81626 4.89298 3.7537 4.94193 3.70649C4.99089 3.65928 5.05835 3.63115 5.12996 3.62809H5.54936C5.62097 3.63115 5.68843 3.65928 5.73739 3.70649C5.78634 3.7537 5.81292 3.81626 5.81148 3.88087L5.8141 4.26833Z" fill="#FFF421"/>
<path d="M8.42742 3.62572H8.00802C7.93641 3.62879 7.86894 3.65691 7.81999 3.70412C7.77104 3.75134 7.74446 3.81391 7.7459 3.87852V4.26833C7.74735 4.33293 7.72077 4.39551 7.67181 4.44272C7.62286 4.48993 7.5554 4.51805 7.48378 4.52112H7.06439C6.99278 4.51805 6.92531 4.48993 6.87636 4.44272C6.82741 4.39551 6.80083 4.33293 6.80227 4.26833V4.26833V3.87852C6.80372 3.81391 6.77714 3.75134 6.72818 3.70412C6.67923 3.65691 6.61177 3.62879 6.54015 3.62572H6.12076C6.04914 3.62266 5.98168 3.59452 5.93273 3.54731C5.88378 3.5001 5.85719 3.43754 5.85864 3.37293V2.98074C5.85785 2.9163 5.88465 2.85407 5.93347 2.80699C5.9823 2.7599 6.04937 2.73161 6.12076 2.72797H8.46149C8.53311 2.73103 8.60057 2.75915 8.64952 2.80637C8.69848 2.85358 8.72506 2.91614 8.72361 2.98074V3.37293C8.72506 3.43754 8.69848 3.5001 8.64952 3.54731C8.60057 3.59452 8.53311 3.62266 8.46149 3.62572H8.42742Z" fill="#FFF421"/>
<path d="M11.9975 5.41888H10.2099C10.1365 5.41765 10.0642 5.40343 9.99699 5.37699C9.92977 5.35056 9.86899 5.31245 9.81812 5.26484C9.76724 5.21723 9.72727 5.16106 9.70049 5.09953C9.67371 5.038 9.66064 4.97231 9.66203 4.90622V4.52113V3.24064C9.66064 3.17467 9.67373 3.1091 9.70054 3.0477C9.72736 2.9863 9.76736 2.93028 9.81827 2.88286C9.86917 2.83544 9.92998 2.79755 9.99718 2.77138C10.0644 2.7452 10.1367 2.73125 10.2099 2.73032H11.9975C12.0707 2.73125 12.143 2.7452 12.2102 2.77138C12.2774 2.79755 12.3382 2.83544 12.3891 2.88286C12.44 2.93028 12.48 2.9863 12.5068 3.0477C12.5337 3.1091 12.5467 3.17467 12.5453 3.24064V4.90858C12.5467 4.97456 12.5337 5.04012 12.5068 5.10152C12.48 5.16292 12.44 5.21893 12.3891 5.26635C12.3382 5.31377 12.2774 5.35167 12.2102 5.37785C12.143 5.40402 12.0707 5.41796 11.9975 5.41888ZM11.586 3.74149C11.586 3.7112 11.5728 3.6821 11.5493 3.66045C11.5258 3.63881 11.4938 3.62635 11.4602 3.62573H10.7472C10.7307 3.62604 10.7144 3.62928 10.6993 3.63526C10.6841 3.64125 10.6704 3.64985 10.659 3.6606C10.6476 3.67135 10.6386 3.68404 10.6326 3.69792C10.6266 3.7118 10.6237 3.7266 10.624 3.74149V4.40536C10.6233 4.42034 10.626 4.43528 10.6318 4.4493C10.6377 4.46332 10.6467 4.47613 10.6582 4.48695C10.6697 4.49777 10.6835 4.50637 10.6988 4.51224C10.7141 4.51812 10.7306 4.52114 10.7472 4.52113H11.4602C11.4769 4.52113 11.4935 4.51812 11.5089 4.51227C11.5244 4.50643 11.5384 4.49786 11.5501 4.48708C11.5618 4.4763 11.571 4.46352 11.5772 4.44949C11.5833 4.43546 11.5863 4.42045 11.586 4.40536V3.74149Z" fill="#FFF421"/>
<path d="M11.9975 11.6985H10.2099C10.1367 11.6976 10.0644 11.6836 9.99718 11.6574C9.92998 11.6313 9.86917 11.5934 9.81827 11.546C9.76736 11.4985 9.72736 11.4425 9.70054 11.3811C9.67373 11.3197 9.66064 11.2542 9.66203 11.1882V10.8031V9.52259C9.66064 9.4565 9.67371 9.39083 9.70049 9.32929C9.72727 9.26776 9.76724 9.21158 9.81812 9.16397C9.86899 9.11636 9.92977 9.07826 9.99699 9.05183C10.0642 9.0254 10.1365 9.01116 10.2099 9.00993H11.9975C12.0708 9.01116 12.1432 9.0254 12.2104 9.05183C12.2776 9.07826 12.3384 9.11636 12.3893 9.16397C12.4401 9.21158 12.4801 9.26776 12.5069 9.32929C12.5337 9.39083 12.5467 9.4565 12.5453 9.52259V11.1882C12.5467 11.2542 12.5337 11.3197 12.5068 11.3811C12.48 11.4425 12.44 11.4985 12.3891 11.546C12.3382 11.5934 12.2774 11.6313 12.2102 11.6574C12.143 11.6836 12.0707 11.6976 11.9975 11.6985ZM11.586 10.0211C11.586 9.9908 11.5728 9.9617 11.5493 9.94006C11.5258 9.91841 11.4938 9.90594 11.4602 9.90532H10.7472C10.7307 9.90563 10.7144 9.90887 10.6993 9.91485C10.6841 9.92084 10.6704 9.92945 10.659 9.9402C10.6476 9.95095 10.6386 9.96363 10.6326 9.9775C10.6266 9.99138 10.6237 10.0062 10.624 10.0211V10.0211V10.685C10.6233 10.7153 10.6358 10.7446 10.6588 10.7667C10.6819 10.7888 10.7136 10.8019 10.7472 10.8031H11.4602C11.494 10.8019 11.526 10.7889 11.5495 10.7669C11.5729 10.7448 11.586 10.7155 11.586 10.685V10.0211Z" fill="#FFF421"/>
<path d="M15.0265 11.0415C14.9062 11.0438 14.7917 11.0888 14.708 11.1668C14.6243 11.2448 14.5783 11.3495 14.5799 11.458V13.303C14.5799 13.3771 14.5473 13.4482 14.4891 13.5006C14.4309 13.553 14.3521 13.5825 14.2698 13.5825H12.2911C12.1678 13.5825 12.0494 13.6267 11.9622 13.7053C11.8749 13.7839 11.8259 13.8906 11.8259 14.0018C11.8259 14.113 11.8749 14.2196 11.9622 14.2983C12.0494 14.3769 12.1678 14.4211 12.2911 14.4211H14.2698C14.4303 14.4189 14.5887 14.3882 14.736 14.3309C14.8834 14.2735 15.0167 14.1905 15.1284 14.0867C15.2402 13.9828 15.3281 13.8602 15.3873 13.7257C15.4464 13.5913 15.4756 13.4476 15.4731 13.303V11.458C15.4744 11.4042 15.4638 11.3507 15.442 11.3006C15.4202 11.2505 15.3875 11.2047 15.346 11.166C15.3045 11.1273 15.2549 11.0964 15.2001 11.075C15.1453 11.0536 15.0863 11.0423 15.0265 11.0415Z" fill="#FFF421"/>
<path d="M14.2729 -1.52635e-06H12.2911C12.1678 -1.52635e-06 12.0494 0.044172 11.9622 0.122806C11.8749 0.201439 11.8259 0.308092 11.8259 0.419297C11.8259 0.530502 11.8749 0.637137 11.9622 0.715771C12.0494 0.794404 12.1678 0.838595 12.2911 0.838595H14.2729C14.3552 0.838595 14.4341 0.868033 14.4922 0.920455C14.5504 0.972877 14.583 1.04399 14.583 1.11813V2.96303C14.5785 3.06979 14.6212 3.1738 14.7018 3.25217C14.7823 3.33054 14.8941 3.37685 15.0126 3.38093C15.131 3.38501 15.2464 3.34651 15.3334 3.27391C15.4203 3.2013 15.4717 3.10053 15.4762 2.99378V1.11813C15.4764 0.827302 15.3508 0.54786 15.1261 0.339109C14.9015 0.130357 14.5954 0.00872319 14.2729 -1.52635e-06Z" fill="#FFF421"/>
<path d="M0.446987 11.0415C0.387257 11.0423 0.328276 11.0536 0.273443 11.075C0.218611 11.0964 0.169011 11.1273 0.127498 11.166C0.0859859 11.2047 0.0533846 11.2505 0.0315693 11.3006C0.00975396 11.3507 -0.000844904 11.4042 0.000387966 11.458V13.303C-0.00207439 13.4476 0.0271026 13.5913 0.0862466 13.7257C0.145391 13.8602 0.233342 13.9828 0.345086 14.0867C0.45683 14.1905 0.590174 14.2735 0.7375 14.3309C0.884826 14.3882 1.04325 14.4189 1.20372 14.4211H3.18241C3.30579 14.4211 3.42411 14.3769 3.51135 14.2983C3.5986 14.2196 3.64761 14.113 3.64761 14.0018C3.64761 13.8906 3.5986 13.7839 3.51135 13.7053C3.42411 13.6267 3.30579 13.5825 3.18241 13.5825H1.20372C1.12147 13.5825 1.04259 13.553 0.984423 13.5006C0.926261 13.4482 0.893586 13.3771 0.893586 13.303V11.458C0.894819 11.4042 0.884225 11.3507 0.86241 11.3006C0.840595 11.2505 0.807989 11.2047 0.766476 11.166C0.724964 11.1273 0.675364 11.0964 0.620531 11.075C0.565699 11.0536 0.506717 11.0423 0.446987 11.0415V11.0415Z" fill="#FFF421"/>
<path d="M3.18234 -1.52635e-06H1.20366C1.04319 0.0021843 0.884765 0.0328412 0.737438 0.0902186C0.590112 0.147596 0.456768 0.230569 0.345024 0.3344C0.23328 0.438231 0.145329 0.560875 0.0861846 0.695348C0.0270406 0.829821 -0.00213637 0.97349 0.000325987 1.11813V2.96303C-0.00419795 3.06979 0.038515 3.1738 0.11907 3.25217C0.199624 3.33054 0.311425 3.37685 0.42987 3.38093C0.548315 3.38501 0.663703 3.34651 0.750656 3.27391C0.837608 3.2013 0.889001 3.10053 0.893525 2.99378V1.11813C0.893525 1.04399 0.926199 0.972877 0.984362 0.920455C1.04252 0.868033 1.12141 0.838595 1.20366 0.838595H3.18234C3.30572 0.838595 3.42405 0.794404 3.51129 0.715771C3.59854 0.637137 3.64755 0.530502 3.64755 0.419297C3.64755 0.308092 3.59854 0.201439 3.51129 0.122806C3.42405 0.044172 3.30572 -1.52635e-06 3.18234 -1.52635e-06Z" fill="#FFF421"/>
</svg>
