<svg width="106" height="24" viewBox="0 0 106 24" fill="none" xmlns="http://www.w3.org/2000/svg">
<g clip-path="url(#clip0_1_119)">
<path d="M67.411 1.52967L-0.210999 1.52967L-0.210999 23.3143L67.411 23.3143V1.52967Z" fill="#FFF421"/>
<path d="M8.84149 1.54182L15.6459 1.54182L17.914 10.5616C18.3887 12.3023 18.8635 14.7814 18.8635 14.7814H18.969C18.969 14.7814 19.4437 12.2495 19.9184 10.4561L22.1338 1.54182L27.6723 1.54182L29.9404 10.4561C30.4151 12.3023 30.9426 14.8341 30.9426 14.8341H31.0481C31.0481 14.8341 31.5756 12.3023 32.0503 10.5616L34.3712 1.54182L40.9646 1.54182L34.5294 23.3264H28.2525L25.8261 13.4627C25.3514 11.7748 24.9294 9.5594 24.9294 9.5594H24.8239C24.8239 9.5594 24.3492 11.7748 23.8745 13.4627L21.3953 23.3264L15.2239 23.3264L8.84149 1.54182Z" fill="#363636"/>
<path d="M40.7535 12.4077C40.7535 5.91983 45.1316 0.908837 51.514 0.908837C54.1513 0.856089 56.736 1.80554 58.6876 3.65169C61.1667 6.02532 62.4327 9.82312 62.3799 14.2539L47.2942 14.2539C47.7162 17.2077 49.2458 19.0011 51.9887 19.0011C53.7294 19.0011 54.8898 18.2099 55.47 16.8385L61.9579 16.8385C61.4305 18.9484 60.2173 20.7418 58.4239 22.0077C56.525 23.3792 54.2041 24.0649 51.8832 24.0121C44.9733 23.9594 40.7535 19.0011 40.7535 12.4077ZM55.5755 10.0869C55.3118 7.50224 53.7821 5.81433 51.6195 5.81433C49.0876 5.81433 47.7689 7.4495 47.3469 10.0869H55.5755Z" fill="#363636"/>
<path d="M64.5953 1.5418L70.925 1.5418V4.97037H71.0305C72.5074 2.38575 74.1953 1.22531 76.7272 1.22531C77.1492 1.17257 77.6239 1.27806 78.0459 1.38356V7.344H77.8876C73.8261 6.76378 71.1887 8.82092 71.1887 13.5682V23.3792H64.5953V1.5418Z" fill="#363636"/>
<path d="M88.4045 18.6198C89.3012 17.8286 90.1979 17.0901 91.2 16.4044C91.9385 15.8242 92.7297 15.244 93.4682 14.6637C95.3143 13.1868 97.055 11.3407 97.055 8.17582C97.1077 6.27692 96.3693 4.37802 94.9979 3.05934C93.5737 1.68791 91.5165 0.949447 89.0374 0.949447C85.9253 0.949447 83.4462 2.05714 82.1275 4.06153C81.0726 5.53846 80.6506 7.22637 80.6506 9.75824V10.022L85.9781 10.022V9.70549C86.0308 8.33406 86.2946 7.38461 86.8748 6.6989C87.3495 6.11868 88.1407 5.80219 88.8792 5.85494C90.0924 5.74945 91.1473 6.64615 91.2528 7.85934C91.2528 8.01758 91.2528 8.17582 91.2528 8.33406C91.2001 9.28351 90.7781 10.1802 89.9869 10.7604C89.1429 11.5516 88.1407 12.2901 87.033 13.1341C86.0308 13.9253 84.9759 14.7165 84.0264 15.5604C82.1803 17.1429 80.2814 19.3582 80.2286 23.3143V23.6308L97.055 23.6308V18.6198L88.4045 18.6198Z" fill="#363636"/>
</g>
<defs>
<clipPath id="clip0_1_119">
<rect width="105.495" height="24" fill="white"/>
</clipPath>
</defs>
</svg>
